<svg xmlns="http://www.w3.org/2000/svg" version="1.1" xmlns:xlink="http://www.w3.org/1999/xlink" xmlns:svgjs="http://svgjs.com/svgjs" width="1440" height="780" preserveAspectRatio="none" viewBox="0 0 1440 780"><g mask="url(&quot;#SvgjsMask1018&quot;)" fill="none"><rect width="1440" height="780" x="0" y="0" fill="rgba(255, 255, 255, 1)"></rect><path d="M490.6 49.87 a19.29 19.29 0 1 0 38.58 0 a19.29 19.29 0 1 0 -38.58 0z" stroke="rgba(184, 239, 255, 1)"></path><path d="M1078.87 314.59 a13.54 13.54 0 1 0 27.08 0 a13.54 13.54 0 1 0 -27.08 0z" stroke="rgba(184, 239, 255, 1)"></path><path d="M1386.81 129.86 a49.95 49.95 0 1 0 99.9 0 a49.95 49.95 0 1 0 -99.9 0z" stroke="rgba(184, 239, 255, 1)"></path><path d="M1047.33 334.34L1101.92 334.34L1101.92 388.93L1047.33 388.93z" fill="rgba(30, 78, 73, 1)"></path><path d="M860.23 19.89L861.99 19.89L861.99 56.87L860.23 56.87z" fill="rgba(97, 156, 168, 1)"></path><path d="M327.11 336.18L366.85 336.18L366.85 355.06L327.11 355.06z" stroke="rgba(97, 156, 168, 1)"></path><path d="M164.79 720.38L237.79 720.38L237.79 793.38L164.79 793.38z" fill="rgba(184, 239, 255, 1)"></path><path d="M885.07 547.18a27.1 27.1 0 1 0-13.93-52.38z" fill="rgba(30, 78, 73, 1)"></path><path d="M1428.26 777.56L1492.98 777.56L1492.98 828.78L1428.26 828.78z" stroke="rgba(30, 78, 73, 1)"></path><path d="M346.07 412.17L358.47 412.17L358.47 424.57L346.07 424.57z" fill="rgba(184, 239, 255, 1)"></path><path d="M136.74 352.94L177.07 352.94L177.07 390.79L136.74 390.79z" fill="rgba(30, 78, 73, 1)"></path><path d="M183.72 318.51 a15.96 15.96 0 1 0 31.92 0 a15.96 15.96 0 1 0 -31.92 0z" fill="rgba(184, 239, 255, 1)"></path><path d="M393.76 431.73L432.89 431.73L432.89 504.54L393.76 504.54z" fill="rgba(184, 239, 255, 1)"></path><path d="M768.23 31.7a1.5 1.5 0 1 0 2.03 2.2z" stroke="rgba(97, 156, 168, 1)"></path><path d="M642.68 418.59a7.9 7.9 0 1 0-6.79-14.27z" fill="rgba(97, 156, 168, 1)"></path><path d="M947.6 590.85L993.54 590.85L993.54 636.79L947.6 636.79z" fill="rgba(184, 239, 255, 1)"></path><path d="M1215.18 246.48 a9.54 9.54 0 1 0 19.08 0 a9.54 9.54 0 1 0 -19.08 0z" stroke="rgba(97, 156, 168, 1)"></path><path d="M1041.55 796.59a57.69 57.69 0 1 0 47.39-105.2z" stroke="rgba(97, 156, 168, 1)"></path><path d="M52.45 255.97 a23.74 23.74 0 1 0 47.48 0 a23.74 23.74 0 1 0 -47.48 0z" stroke="rgba(97, 156, 168, 1)"></path><path d="M992.35 17.63L1051.39 17.63L1051.39 76.67L992.35 76.67z" stroke="rgba(97, 156, 168, 1)"></path><path d="M822.46 323.33 a45.65 45.65 0 1 0 91.3 0 a45.65 45.65 0 1 0 -91.3 0z" fill="rgba(184, 239, 255, 1)"></path><path d="M1109.25 323.76 a15.27 15.27 0 1 0 30.54 0 a15.27 15.27 0 1 0 -30.54 0z" stroke="rgba(184, 239, 255, 1)"></path><path d="M1261.44 622.89L1300.88 622.89L1300.88 662.33L1261.44 662.33z" fill="rgba(97, 156, 168, 1)"></path><path d="M1035.41 651.07L1039.19 651.07L1039.19 667.55L1035.41 667.55z" fill="rgba(30, 78, 73, 1)"></path></g><defs><mask id="SvgjsMask1018"><rect width="1440" height="780" fill="#ffffff"></rect></mask></defs></svg>