<svg id="wave" style="transform:rotate(0deg); transition: 0.3s" viewBox="0 0 1440 170" version="1.1" xmlns="http://www.w3.org/2000/svg"><defs><linearGradient id="sw-gradient-0" x1="0" x2="0" y1="1" y2="0"><stop stop-color="rgba(148.377, 231.521, 255, 0.47)" offset="0%"></stop><stop stop-color="rgba(130.083, 230.852, 232.588, 0.4)" offset="100%"></stop></linearGradient></defs><path style="transform:translate(0, 0px); opacity:1" fill="url(#sw-gradient-0)" d="M0,102L48,90.7C96,79,192,57,288,65.2C384,74,480,113,576,121.8C672,130,768,108,864,99.2C960,91,1056,96,1152,104.8C1248,113,1344,125,1440,121.8C1536,119,1632,102,1728,93.5C1824,85,1920,85,2016,96.3C2112,108,2208,130,2304,116.2C2400,102,2496,51,2592,31.2C2688,11,2784,23,2880,34C2976,45,3072,57,3168,73.7C3264,91,3360,113,3456,113.3C3552,113,3648,91,3744,73.7C3840,57,3936,45,4032,42.5C4128,40,4224,45,4320,48.2C4416,51,4512,51,4608,56.7C4704,62,4800,74,4896,87.8C4992,102,5088,119,5184,107.7C5280,96,5376,57,5472,39.7C5568,23,5664,28,5760,45.3C5856,62,5952,91,6048,93.5C6144,96,6240,74,6336,56.7C6432,40,6528,28,6624,19.8C6720,11,6816,6,6864,2.8L6912,0L6912,170L6864,170C6816,170,6720,170,6624,170C6528,170,6432,170,6336,170C6240,170,6144,170,6048,170C5952,170,5856,170,5760,170C5664,170,5568,170,5472,170C5376,170,5280,170,5184,170C5088,170,4992,170,4896,170C4800,170,4704,170,4608,170C4512,170,4416,170,4320,170C4224,170,4128,170,4032,170C3936,170,3840,170,3744,170C3648,170,3552,170,3456,170C3360,170,3264,170,3168,170C3072,170,2976,170,2880,170C2784,170,2688,170,2592,170C2496,170,2400,170,2304,170C2208,170,2112,170,2016,170C1920,170,1824,170,1728,170C1632,170,1536,170,1440,170C1344,170,1248,170,1152,170C1056,170,960,170,864,170C768,170,672,170,576,170C480,170,384,170,288,170C192,170,96,170,48,170L0,170Z"></path></svg>