<svg xmlns="http://www.w3.org/2000/svg" version="1.1" xmlns:xlink="http://www.w3.org/1999/xlink" xmlns:svgjs="http://svgjs.com/svgjs" width="1440" height="560" preserveAspectRatio="none" viewBox="0 0 1440 560">
    <g mask="url(&quot;#SvgjsMask1018&quot;)" fill="none">
        <circle r="8.04" cx="602.11" cy="86.87" filter="url(#SvgjsFilter1019)" fill="rgba(217, 228, 247, 0.53)"></circle>
        <circle r="9.02" cx="493.37" cy="469.09" filter="url(#SvgjsFilter1019)" fill="rgba(217, 228, 247, 0.53)"></circle>
        <circle r="7.69" cx="629.33" cy="150.5" filter="url(#SvgjsFilter1019)" fill="rgba(217, 228, 247, 0.53)"></circle>
        <circle r="8.48" cx="622.62" cy="63.19" filter="url(#SvgjsFilter1019)" fill="rgba(217, 228, 247, 0.53)"></circle>
        <circle r="7.13" cx="298.28" cy="143.89" filter="url(#SvgjsFilter1019)" fill="rgba(217, 228, 247, 0.53)"></circle>
        <circle r="6.705" cx="1143.495" cy="32.845" filter="url(#SvgjsFilter1019)" fill="rgba(217, 228, 247, 0.53)"></circle>
        <circle r="8.04" cx="953.9" cy="382.85" filter="url(#SvgjsFilter1019)" fill="rgba(217, 228, 247, 0.53)"></circle>
        <circle r="9.015" cx="967.465" cy="449.075" filter="url(#SvgjsFilter1019)" fill="rgba(217, 228, 247, 0.53)"></circle>
        <circle r="6.165" cx="1101.735" cy="325.805" filter="url(#SvgjsFilter1019)" fill="rgba(217, 228, 247, 0.53)"></circle>
        <circle r="8.955" cx="819.5350000000001" cy="465.195" filter="url(#SvgjsFilter1019)" fill="rgba(217, 228, 247, 0.53)"></circle>
        <circle r="8.79" cx="731.54" cy="175.91" filter="url(#SvgjsFilter1019)" fill="rgba(217, 228, 247, 0.53)"></circle>
        <circle r="5.76" cx="516.8100000000001" cy="93.42" filter="url(#SvgjsFilter1019)" fill="rgba(217, 228, 247, 0.53)"></circle>
        <circle r="6.015" cx="914.055" cy="253.195" filter="url(#SvgjsFilter1019)" fill="rgba(217, 228, 247, 0.53)"></circle>
        <circle r="8.32" cx="1300.81" cy="11.290000000000001" filter="url(#SvgjsFilter1019)" fill="rgba(217, 228, 247, 0.53)"></circle>
        <circle r="7.445" cx="195.45499999999998" cy="240.515" filter="url(#SvgjsFilter1019)" fill="rgba(217, 228, 247, 0.53)"></circle>
        <circle r="5.655" cx="915.635" cy="468.60499999999996" filter="url(#SvgjsFilter1019)" fill="rgba(217, 228, 247, 0.53)"></circle>
        <circle r="8.88" cx="708.49" cy="510.64" filter="url(#SvgjsFilter1019)" fill="rgba(217, 228, 247, 0.53)"></circle>
        <circle r="7.11" cx="490.04" cy="213.27" filter="url(#SvgjsFilter1019)" fill="rgba(217, 228, 247, 0.53)"></circle>
        <circle r="6.57" cx="633.08" cy="205.45999999999998" filter="url(#SvgjsFilter1019)" fill="rgba(217, 228, 247, 0.53)"></circle>
        <circle r="8.4" cx="998.5799999999999" cy="210.73000000000002" filter="url(#SvgjsFilter1019)" fill="rgba(217, 228, 247, 0.53)"></circle>
        <path d="M1211.6 73.3L1201.9 76.1 1203.3 69.5C1203.5 68.8 1203 67.9 1202.1 67.5 1201.2 67.5 1200.3 68 1200.1 68.6L1198.1 77.3 1189.1 79.8 1193.4 62.2C1193.6 61.1 1193.1 60.2 1192.2 60.2 1191.3 59.8 1190.4 60.3 1190.2 61.4L1185.5 80.8 1177.4 83.3 1163.3 69.8 1164.9 62.5 1185.3 56.8C1185.5 56.6 1185.8 56.3 1186 56.1 1186.2 55.9 1186.4 55.2 1186.4 54.7 1186.1 53.6 1185.2 53.2 1184.3 53.7L1165.7 58.9 1167.9 50 1177.4 47C1177.6 47.3 1177.8 47 1178.1 46.8 1178.5 46.3 1178.7 45.7 1178.5 45 1178.2 44.3 1177.3 43.9 1176.4 43.9L1168.8 46.4 1171.4 35.2C1171.6 34.5 1171.1 33.6 1170.2 33.2 1169.3 33.2 1168.4 33.7 1168.2 34.4L1165.8 44.9 1160.9 40.2C1160.2 39.6 1159.1 39.8 1158.6 40.3 1158 41 1157.8 42.1 1158.5 42.8L1164.7 48.7 1162.5 57.6 1149.5 45.3C1148.8 44.6 1147.9 44.6 1147.2 45.3 1146.6 46 1146.6 46.9 1147.3 47.6L1161.7 61.3 1160.1 69 1141.2 74.5 1135.9 69.4 1140.5 49.6C1141 48.7 1140.3 47.5 1139.4 47.6 1138.4 47.1 1137.8 47.8 1137.4 48.7L1133.1 66.7 1126.3 60.3 1128.6 51.5C1128.8 50.8 1128.1 49.7 1127.4 49.5S1125.6 50 1125.2 50.9L1123.6 57.7 1115.4 50C1114.7 49.3 1113.6 49.6 1113 50.3 1112.5 50.7 1112.3 51.9 1113 52.5L1121.1 60.3 1114.2 62.5C1113.5 62.7 1112.8 63.4 1113.1 64.5 1113.3 65.2 1114.5 65.9 1115.2 65.6L1123.9 62.9 1130.6 69.3 1112.9 74.5C1112 75 1111.3 75.7 1111.6 76.8 1111.8 77.5 1113 78.1 1113.7 77.9L1133.4 71.9 1138.8 77 1134.3 96.1 1126.6 98.1 1112.2 84.5C1111.6 83.8 1110.6 83.8 1110 84.5 1109.3 85.2 1109.1 86.4 1109.8 87L1122.8 99.4 1114.1 102.1 1107.8 96.1C1107.1 95.5 1106.2 95.5 1105.5 96.2 1104.9 96.9 1104.9 97.8 1105.6 98.5L1110.5 103.1 1100.1 106.1C1099.5 106.3 1098.8 107.5 1099 108.1 1099.5 109 1100.2 109.7 1101.1 109.2L1111.9 106.2 1110.1 113.7C1110.1 114.6 1110.6 115.5 1111.2 115.7 1111.9 115.9 1112.6 115.7 1113 115.2 1113 115.2 1113.3 115 1113.2 114.6L1115.7 105 1124.5 102.3 1120.2 121.2C1119.8 122.1 1120.3 123 1121.4 123.2 1121.8 123.2 1122.3 123.2 1122.7 122.7 1123 122.5 1123.2 122.2 1123.4 122L1128.1 101.3 1135.3 99.3 1149.4 112.7 1147.4 120.9 1128.3 126.6C1127.1 126.9 1126.7 127.8 1127.2 128.7 1127.2 129.6 1128.1 130 1129.3 129.8L1146.5 124.6 1144.5 133.7 1136 136.2C1135.3 136.4 1134.9 137.3 1134.9 138.2 1135.4 139.1 1136.1 139.8 1137 139.3L1143.5 137.5 1141.2 147.3C1140.8 148.3 1141.5 148.9 1142.4 149.3 1142.9 149.3 1143.6 149.1 1144 148.6 1144 148.6 1144.2 148.4 1144.4 148.2L1146.9 137.7 1152.7 143.2C1153.1 143.6 1154.3 143.8 1154.9 143.1 1155.6 142.4 1155.4 141.3 1154.9 140.9L1147.7 134 1149.7 124.9 1163.9 138.4C1164.6 139 1165.7 138.8 1166.4 138.1S1167 136.5 1166.3 135.8L1150.8 121.1 1152.6 113.5 1171.5 108.1 1177.5 113.8 1172.6 133.9C1172.6 134.8 1173.1 135.7 1174 136.1 1174.5 136.1 1175.1 135.8 1175.6 135.4 1175.8 135.1 1176 134.9 1176 134.4L1180.3 116.5 1187 122.8 1185 132C1184.8 132.6 1185.3 133.5 1186.2 134 1187.1 133.9 1188 133.5 1188.2 132.8L1189.8 125.5 1197.2 132.5C1197.7 133 1199.1 133 1199.5 132.5 1200.2 131.8 1200.1 130.4 1199.7 130L1192.2 122.9 1199.2 121.2C1199.4 120.9 1199.6 120.7 1199.9 120.5 1200.3 120 1200.5 119.3 1200.5 118.9 1200 118 1199.1 117.6 1198.2 117.6L1189.4 120.3 1182.7 113.9 1200.5 108.7C1201.6 108.4 1202 107.5 1201.8 106.9 1201.5 105.7 1200.6 105.3 1199.7 105.3L1179.9 111.3 1173.9 105.5 1178.4 86.4 1185.8 84.2 1201.3 98.9C1202 99.6 1202.9 99.6 1203.6 98.9 1204.3 98.2 1204.2 97.3 1203.6 96.6L1189.4 83.2 1198.4 80.7 1205.6 87.5C1206 88 1207.4 87.9 1208.1 87.2 1208.7 86.5 1208.5 85.4 1208 85L1202.2 79.5 1212.5 76.5C1212.8 76.2 1212.8 76.2 1213 76 1213.4 75.5 1213.6 74.9 1213.6 74.4 1213.1 73.5 1212.2 73.1 1211.6 73.3ZM1171.1 102.9L1170.5 104.9 1168.7 105.4 1153.4 109.9 1151.6 110.4 1150.2 109.1 1138.9 98.3 1137.5 97 1137.9 95.1 1141.5 79.7 1142 77.8 1144 77.1 1159 72.9 1161 72.1 1162.4 73.5 1173.8 84.3 1175.2 85.6 1174.6 87.6 1171.1 102.9Z" fill="rgba(217, 228, 247, 0.53)"></path>
        <path d="M415.9 358.2L365.5 366.9 350.5 355.8 367.5 352.9C369.4 353.1 370.2 351.2 370.4 349.3 369.9 348 368.1 346.5 366.8 347L343.3 350.6 328.2 340.1 345 332.7 367.3 341.3C367.3 341.3 368 341.4 368 341.4 369.2 341.5 370.6 340.3 371.4 339.1 371.6 337.2 371.1 335.9 369.2 335.1L353.1 329 369.9 321.6 417.7 339.1C417.7 339.1 418.3 339.8 418.3 339.8 419.6 339.9 421 338.8 421.7 337.6 422.5 335.7 421.4 333.7 419.5 333.5L378 317.9 398.2 308.3 416.8 315.2C416.8 315.2 416.8 315.2 417.4 315.3 418.7 315.4 420.1 314.9 420.8 313.7 421 311.8 420.5 309.8 418.7 309L406.3 304.6 421.1 297.7C423.1 297.2 423.2 295.3 422.7 294 422.3 292 420.4 291.2 418.4 292.3L403.6 298.5 408.6 286.8C408.8 284.9 408.4 282.9 406.5 282.7 404.6 281.9 403.3 282.4 402.4 284.3L395.5 302.9 375.3 311.9 391 269.7C391.8 268.5 390.7 266.4 388.8 265.6 387.6 265.5 385.6 265.9 384.8 267.8L367.3 315.6 350.5 323 356.5 306.8C357.4 305 356.2 303.6 354.4 302.8 353.1 302 351.1 303.1 350.4 304.3L342.4 326.7 325.5 334.7 327.3 316.2 345.5 301.3C346.9 300.1 347.1 298.2 345.9 296.8 345.4 295.5 342.9 295.2 341.5 296.4L328.2 307.3 330 288.8 369.8 256.7C371.2 255.5 371.3 253.6 370.2 252.2 369 250.8 367.1 250.6 365.7 251.8L330.9 279.9 333 258.2 348.3 245.6C349.7 244.4 349.9 242.5 348.8 241.1 347.6 239.7 345.7 239.5 344.3 240.7L333.9 248.7 335.4 232.8C335.6 230.9 334.5 229.5 332.6 229.3 330.6 229.1 329.2 230.2 329.1 232.1L327.5 248.1 319.5 238.3C318.3 236.9 316.4 236.7 315 237.9S313.4 240.9 314.6 242.3L326.6 257 324.5 279.3 296.3 245C295.2 243.6 293.2 243.5 291.8 244.6 290.4 245.8 290.3 247.7 291.4 249.1L323.6 288.2 321.8 306.7 310.9 293.4C309.8 292 307.8 291.8 306.4 293 305 294.1 304.9 296 306 297.4L321 315.6 319.2 333.4 304.8 323 300.7 299.5C300.2 298.1 298.4 296.7 297 297.2 295.1 297.7 294.3 298.9 294.1 300.8L297 317.8 282.5 307.4 273.9 257C273.5 255 272.3 254.3 270.3 254.1 268.4 254.6 267.5 256.4 267.4 257.7L274.7 302.1 256.7 288.8 253.4 269.8C253.6 267.9 251.7 267.1 249.8 266.9 248.5 267.4 247 269.2 247.5 271.2L249.5 283.6 236.2 274.6C235.1 273.2 233.1 273.6 231.6 275.4 230.9 276.6 231.3 278.6 232.5 279.4L245.7 289 232.7 291C230.7 291.4 229.9 293.3 230.4 294.6 230.2 296.5 231.4 297.3 232.7 297.4 233.3 297.5 233.3 297.5 234 297.5L253 294.2 270.9 307.5 227.2 314.9C225.2 314.7 224.4 316.5 224.2 318.4 224.8 319.8 226 320.5 227.2 320.7 227.9 320.7 227.9 320.7 227.9 320.7L278.8 312.8 293.2 323.2 276.2 326C274.3 326.5 273.5 327.7 273.3 329.6 273.8 331 275 332.4 276.2 332.5 276.9 332.5 276.9 332.5 277.5 332.6L301.1 328.5 315.5 338.9 299.3 346.3 277 338.3C275.1 337.5 273.1 338.6 272.3 339.8 272.1 341.7 272.6 343.7 274.5 343.9L290.6 349.9 274.4 358 226 339.8C224.8 339.1 222.8 340.2 222 341.4 221.8 343.3 222.3 345.2 224.1 346.1L265.7 361.7 245.5 370.7 227.6 363.8C225.7 362.9 223.7 364 223.5 365.9 222.7 367.2 223.2 369.1 225 369.9L237.5 374.4 222.6 381.3C221.3 381.8 220.5 383.7 220.9 385.6 221.5 386.3 222.7 387.1 224 387.2 224 387.2 224.6 387.3 225.3 387.3L240.1 380.4 235.7 392.8C234.9 394.1 236 396.1 237.2 396.8 237.8 396.9 237.8 396.9 237.8 396.9 239.8 397.1 241.2 395.9 241.3 394.7L248.2 376.7 268.4 367.1 252.7 409.3C252.5 411.2 253 412.5 254.9 413.4 254.9 413.4 255.5 413.4 255.5 413.4 256.8 413.5 258.1 413 259 411.2L277.1 363.4 293.3 356 287.2 372.1C287 374 287.5 376 289.4 376.2 289.3 376.8 289.9 376.9 289.9 376.9 291.2 377 292.6 375.9 293.4 374.6L301.3 352.3 318.1 344.9 316.4 362.7 298.2 377.7C296.8 378.8 296.6 381.4 297.7 382.8 298.9 383.5 300.9 383.7 302.2 383.2L315.5 371.7 313.7 390.1 274.6 422.3C273.2 423.5 273 425.4 274.2 426.8 275.3 428.2 277.2 428.4 278.6 427.2L312.9 399 310.7 421.3 296 433.4C294.6 434.6 294.5 436.5 295.6 437.9S298.7 439.5 300.1 438.3L309.8 430.3 308.3 446.2C308.1 448.1 309.3 449.5 311.2 449.7 313.1 449.9 314.5 448.7 314.7 446.8L316.2 430.9 324.9 440.7C325.5 441.4 326.1 442.1 326.7 442.2 327.3 442.2 328.7 441.7 329.4 441.2 330.8 440 330.9 438.1 329.8 436.7L317.1 422 319.2 399.7 348.1 434C348.6 434.7 349.2 435.4 349.9 435.4 350.5 435.5 351.8 435 352.5 434.4 353.9 433.2 354.1 431.3 353 429.9L320.1 390.7 321.9 372.3 332.8 386.2C333.3 386.9 334.6 387 335.3 387.1 335.9 387.1 336.5 387.2 337.2 386.6 338.6 385.5 338.9 382.9 337.7 382.2L322.8 363.4 324.5 345.5 339.6 356 343.1 379.5C343.6 380.8 344.7 382.2 346 382.3 346.6 382.4 346.6 382.4 346.7 381.7 348.6 381.9 350.1 380.1 349.6 378.2L346.8 361.2 361.8 371.6 369.7 422.6C370.3 423.9 371.5 424.7 372.7 424.8 373.4 424.8 373.4 424.8 373.4 424.8 375.4 424.4 376.8 423.2 376.3 421.3L369 376.8 387 390.2 390.3 409.1C390.8 411.1 392 411.9 393.3 412 393.3 412 393.9 412 393.9 412 395.9 411.6 396.7 409.7 396.8 408.5L394.2 395.4 407.5 405C408.1 405.1 408.7 405.1 409.4 405.2 410 405.3 411.3 404.7 412 404.2 412.9 402.3 413 400.4 411.2 399.6L398 389.9 411 388C413 387.5 413.8 385.7 414 384.4 413.5 382.4 411.7 381.6 409.7 381.4L390.8 384.7 372.7 372.1 416.5 364.7C418.5 364.3 419.9 362.5 419.4 361.2 419 359.2 417.8 357.8 415.9 358.2Z" fill="rgba(217, 228, 247, 0.53)"></path>
        <path d="M900.8 471.5L887.9 479.3 887.3 469.2C887.4 468.2 886.3 467.1 884.8 466.8 883.5 467.2 882.4 468.2 882.4 469.3L882.9 482.6 870.9 489.9 870.1 462.8C869.9 461.1 868.9 460 867.6 460.3 866.1 460.1 865 461.1 865.2 462.9L866.1 492.7 855.4 499.5 829.6 485.8 829 474.6 856.3 458.1C856.5 457.7 856.7 457.3 856.9 456.9 857.2 456.4 857.2 455.4 857 454.7 856.2 453.2 854.7 452.9 853.6 454L828.7 469 828.4 455.3 840.9 447.2C841.3 447.4 841.5 447 841.8 446.6 842.2 445.7 842.2 444.7 841.6 443.8 841 442.9 839.5 442.7 838.2 443.1L828.1 449.7 827.5 432.5C827.5 431.4 826.5 430.3 825 430 823.7 430.4 822.6 431.5 822.6 432.6L823.2 448.7 814.3 443.9C813.1 443.3 811.5 444.1 811.1 444.9 810.4 446.2 810.6 447.9 811.9 448.6L823.3 454.7 823.6 468.4 799.9 455.8C798.6 455.1 797.3 455.5 796.6 456.8 795.9 458.1 796.3 459.4 797.6 460L823.9 474 824.6 485.9 799.5 501.3 789.8 496.1 788.7 465.6C788.9 464.1 787.4 462.8 786.1 463.2 784.6 462.9 784 464.2 783.7 465.7L784.7 493.4 772.4 486.9 772.1 473.1C772.2 472.1 770.7 470.7 769.6 470.7S767.2 472.2 767 473.6L767.3 484.2 752.5 476.3C751.2 475.6 749.7 476.4 749 477.7 748.6 478.5 748.8 480.3 750 480.9L764.9 488.8 755.7 494.8C754.8 495.5 754.1 496.7 755 498.2 755.6 499.1 757.5 499.6 758.4 499L769.9 491.5 782.2 498.1 758.7 512.7C757.6 513.8 756.9 515 757.7 516.6 758.3 517.4 760.2 517.9 761.1 517.3L787.3 500.8 797.1 506 798.2 535.4 788 541.4 761.7 527.4C760.5 526.7 759.2 527.1 758.5 528.4 757.8 529.7 758 531.4 759.2 532.1L783 544.7 771.4 552.1 760 546C758.7 545.4 757.4 545.8 756.7 547 756 548.3 756.4 549.6 757.7 550.3L766.6 555 752.8 563.5C752 564.1 751.5 566 752.1 566.9 753.2 568 754.4 568.7 755.5 567.6L769.9 559 770.3 570.6C770.7 571.9 771.7 573 772.8 573 773.9 573 774.7 572.4 775.2 571.6 775.2 571.6 775.4 571.1 775.2 570.5L775 555.7 786.5 548.2 787.9 577.3C787.7 578.8 788.7 579.9 790.4 579.7 791.1 579.5 791.7 579.3 792.2 578.4 792.4 578 792.6 577.6 792.9 577.2L791.3 545.4 800.9 539.6 826.8 553.4 827.1 566 801.8 581.9C800.2 582.7 800 584.2 801 585.3 801.4 586.6 802.9 586.9 804.4 586.1L827.4 571.6 828.1 585.6 816.7 592.6C815.9 593.2 815.6 594.7 816 596 817 597.1 818.3 597.8 819.4 596.8L828.1 591.6 828.8 606.7C828.6 608.2 829.8 608.8 831.3 609.1 832 608.9 832.9 608.3 833.3 607.4 833.3 607.4 833.5 607 833.8 606.6L833.1 590.4 843.7 596.1C844.5 596.5 846.3 596.4 846.9 595.1 847.6 593.8 846.8 592.3 846 591.9L832.8 584.9 832.1 570.9 858 584.6C859.2 585.3 860.7 584.5 861.4 583.2S861.7 580.7 860.4 580L832 564.9 831.7 553.3 856.8 537.8 867.8 543.7 868.7 574.6C869.1 575.9 870.2 577 871.7 577.3 872.3 577.1 873.2 576.4 873.6 575.6 873.9 575.2 874.1 574.8 873.9 574.1L872.9 546.4 885.2 552.9 885.9 566.9C885.9 568 886.9 569.1 888.4 569.3 889.7 568.9 890.8 567.9 890.8 566.8L890.3 555.6 903.8 562.9C904.7 563.3 906.6 562.7 907.1 561.9 907.7 560.6 907.2 558.6 906.3 558.2L892.7 551 902.1 545.6C902.3 545.2 902.6 544.8 902.8 544.4 903.2 543.5 903.3 542.4 903.1 541.8 902 540.7 900.5 540.4 899.2 540.8L887.7 548.3 875.4 541.7 898.9 527.1C900.5 526.3 900.7 524.8 900.1 523.9 899.3 522.4 897.8 522.1 896.5 522.5L870.3 539 859.3 533.1 858.1 503.7 867.9 497.5 896.3 512.6C897.6 513.3 898.9 512.9 899.6 511.6 900.2 510.4 899.8 509.1 898.6 508.4L872.7 494.6 884.7 487.4 897.9 494.4C898.7 494.9 900.6 494.3 901.3 493 902 491.7 901.2 490.2 900.3 489.8L889.7 484.1 903.5 475.7C903.7 475.2 903.7 475.2 903.9 474.8 904.4 474 904.4 472.9 904.2 472.2 903.2 471.1 901.7 470.9 900.8 471.5ZM854.2 530.4L854.1 533.7 851.7 535.1 831.4 547.7 829 549.1 826.5 547.8 805.7 536.7 803.2 535.4 803 532.6 802.1 508.7 802 505.9 804.6 504 824.7 491.9 827.3 490 829.9 491.4 850.6 502.4 853.2 503.8 853.1 507 854.2 530.4Z" fill="rgba(217, 228, 247, 0.53)"></path>
        <path d="M1014.7 176.5L1028.6 213.8 1013.6 245.9 993.3 216.9 1000.4 177.7C1000.4 177.7 1000.4 177.2 1000.4 177.2 1000.3 176.3 999.2 175.4 998.2 175 996.8 174.7 995.4 175.8 995.5 177.2L989.4 211.5 979.5 197.4 982 182.2C982 182.2 982 181.8 982 181.8 981.9 180.8 980.8 179.9 979.8 179.5 978.4 179.2 977 180.3 977.1 181.7L975.2 192 968 181.6C967.4 180.6 965.4 180.3 964.5 180.9 963.1 181.5 963.3 183.4 963.9 184.3L971.1 194.8 960.8 192.8C959.3 192.4 957.9 193.5 958.1 195 957.7 196.4 958.8 197.8 960.2 197.7L975.4 200.2 984.8 214.3 950.6 208.2C949.1 207.8 947.7 208.9 947.9 210.3 947.5 211.8 948.6 213.1 950 213L989.2 220.2 1009.6 249.2 973.7 252.4 943 226.6C942 225.8 940.6 225.9 939.7 226.9 938.8 228 938.9 229.4 940 230.3L967 253 949.8 254.5 938.4 244.9C937.3 244 935.9 244.1 935 245.2 934.2 246.2 934.3 247.7 935.3 248.5L943.1 255.1 929.8 256.3C928.3 255.9 927.4 257.4 927.6 258.9 927.7 260.3 928.7 261.2 930.2 261L942.6 259.9 936.1 267.7C935.2 268.8 935.3 270.2 936.4 271.1S938.8 271.8 939.7 270.8L949.3 259.3 966.5 257.8 943.8 284.9C943 285.9 943.1 287.4 944.1 288.2 945.2 289.1 946.6 289 947.5 287.9L973.2 257.2 1008.6 254.1 993.6 286.3 957.2 299.6C955.8 300.2 955.5 301.7 955.6 303.1 956.2 304.5 957.7 304.9 959.1 304.7L991.8 292.7 984.5 308.3 970 313.4C968.6 314 968.2 315.5 968.4 316.9 969 318.3 970.4 318.7 971.4 318.6L981.2 314.8 975.9 326.4C975.5 327.4 975.7 329.3 977.2 329.6 978.7 330 980.1 329.9 980.5 328.4L985.7 316.8 989.5 326.6C990.1 328 991.5 328.4 992.5 328.3 993.4 327.7 994.3 326.7 994.2 325.7 994.2 325.7 994.2 325.2 994.2 325.2L989 310.8 996.3 295.2 1008.4 327.8C1009 329.2 1010.4 329.6 1011.4 329.5 1012.3 328.9 1013.2 327.9 1013.1 326.9 1013.1 326.9 1013.1 326.5 1013.1 326.5L999.2 289.1 1014.1 257 1034.5 286 1027.4 325.2C1027 326.7 1028.1 328 1029.6 327.9 1031 328.3 1032.4 327.2 1032.3 325.7L1038.4 291.5 1048.3 305.5 1045.8 320.7C1045.4 322.2 1046.5 323.5 1048 323.4 1049.4 323.7 1050.8 322.7 1050.7 321.2L1052.6 310.9 1059.8 321.4C1060.4 322.3 1062.3 322.6 1063.3 322 1064.2 321.5 1064.6 320.5 1064.5 319.5 1064.4 319 1064.4 318.6 1063.9 318.1L1056.7 307.7 1067 309.7C1068.5 310 1069.8 308.9 1069.7 307.5 1069.7 307.5 1069.6 307 1069.6 307 1069.6 306.1 1068.5 305.2 1067.5 304.8L1052.4 302.3 1042.4 288.2 1076.7 294.3C1078.2 294.7 1079.5 293.6 1079.4 292.2 1079.4 292.2 1079.4 291.7 1079.4 291.7 1079.3 290.7 1078.2 289.9 1077.2 289.5L1038.1 282.3 1017.7 253.3 1053.1 250.2 1083.8 275.9C1084.8 276.8 1086.2 276.6 1087.1 275.6 1088 274.6 1087.8 273.1 1086.8 272.2L1060.2 249.5 1077.4 248 1088.9 257.6C1089.9 258.5 1091.4 258.4 1092.2 257.3S1093 254.8 1091.9 254L1084.1 247.4 1096.6 246.3C1098 246.2 1098.9 245.2 1098.7 243.7 1098.6 242.3 1097.6 241.4 1096.1 241.5L1083.7 242.6 1090.2 234.8C1090.7 234.3 1091.1 233.8 1091 232.8S1090.4 231.5 1089.9 231C1088.9 230.1 1087.4 230.3 1086.6 231.3L1077 242.8 1059.8 244.3 1082.4 217.2C1082.9 216.7 1083.3 216.2 1083.2 215.2 1083.2 214.7 1082.6 213.8 1082.1 213.4 1081 212.5 1079.6 212.6 1078.7 213.7L1053 244.4 1017.6 247.5 1032.6 215.4 1070 201.5C1070.9 200.9 1071.7 199.9 1071.7 198.9 1071.7 198.9 1071.6 198.4 1071.6 198.4 1071 197 1069.5 196.7 1068.6 196.8L1035.9 208.8 1043.2 193.2 1057.7 188.1C1058.6 187.5 1059.5 186.5 1059.4 185.5 1059.4 185.5 1059.3 185 1059.3 185 1058.7 183.7 1057.3 183.3 1056.3 183.4L1046.5 187.1 1051.8 175.6C1051.7 175.1 1052.2 174.6 1052.1 174.1 1052 173.2 1051.5 172.3 1050.5 171.9 1049 171.5 1047.6 171.6 1047.2 173.1L1042 184.7 1038.2 174.9C1037.6 173.5 1036.1 173.1 1035.2 173.2 1033.8 173.8 1033.4 175.3 1033.5 176.2L1038.6 190.7 1031.4 206.3 1019.3 173.6C1018.7 172.3 1017.2 171.9 1016.3 172 1015 173.5 1014.1 175.1 1014.7 176.5Z" fill="rgba(217, 228, 247, 0.53)"></path>
        <path d="M565.9 274.3L543.9 289.2 520.7 284.5 536.3 266.8 562.8 265.2C562.8 265.2 563.1 265.1 563.1 265.1 563.8 264.9 564.2 264.1 564.3 263.4 564.2 262.4 563.3 261.7 562.4 262L539.3 263.4 546.8 254.8 557 254C557 254 557.3 253.9 557.3 253.9 557.9 253.7 558.3 252.9 558.4 252.2 558.4 251.2 557.5 250.5 556.6 250.8L549.6 251.1 555.3 244.8C555.8 244.3 555.7 243 555.2 242.5 554.5 241.7 553.3 242.1 552.8 242.6L547.2 248.9 546.9 241.9C546.9 240.9 545.9 240.2 545 240.5 544 240.5 543.3 241.4 543.6 242.3L544.4 252.6 536.7 260.9 535.3 237.7C535.3 236.7 534.4 236 533.5 236.3 532.5 236.3 531.8 237.2 532.1 238.1L533.6 264.7 518 282.4 510.3 259.7 522.1 235.8C522.5 235 522.2 234 521.4 233.6 520.6 233.2 519.7 233.5 519.3 234.4L508.9 255.5 505.2 244.5 509.6 235.6C510 234.8 509.7 233.9 508.9 233.5 508.1 233.1 507.2 233.4 506.8 234.2L503.7 240.3 500.9 231.8C500.9 230.8 499.8 230.5 498.8 230.8 497.9 231.1 497.5 231.9 497.8 232.8L500.5 240.7 494.4 237.7C493.6 237.3 492.7 237.6 492.3 238.4S492.2 240.1 493 240.5L501.9 245 505.6 255.9 484.5 245.4C483.7 245 482.8 245.3 482.4 246.2 482 247 482.3 247.9 483.1 248.3L507.1 260.1 514.6 282.5 491.5 277.9 477.1 256.4C476.5 255.6 475.5 255.6 474.6 255.9 473.8 256.5 473.8 257.5 474.1 258.4L487 277.7 475.8 275.4 470.2 266.8C469.5 266 468.5 266 467.6 266.4 466.8 267 466.8 268 467 268.6L471 274.3 462.7 272.8C462 272.7 460.8 273.1 460.8 274.1 460.8 275.1 461.1 276 462.1 276L470.4 277.6 464.7 281.5C463.8 282.2 463.9 283.2 464.1 283.8 464.6 284.3 465.4 284.7 466 284.5 466 284.5 466.3 284.4 466.3 284.4L474.9 278.8 486.1 281 466.8 294C466 294.6 466 295.6 466.2 296.2 466.7 296.7 467.6 297.1 468.2 296.9 468.2 296.9 468.5 296.8 468.5 296.8L490.5 281.9 513.7 286.6 498 304.4 471.5 305.9C470.5 305.9 469.8 306.8 470.1 307.7 470.1 308.7 471 309.4 472 309.1L495.1 307.7 487.6 316.4 477.4 317.1C476.3 317.1 475.6 318 475.9 318.9 476 320 476.9 320.7 477.8 320.3L484.8 320 479.1 326.3C478.6 326.8 478.7 328.1 479.2 328.6 479.7 329.1 480.4 329.2 481 329 481.4 328.9 481.7 328.8 481.9 328.4L487.5 322.1 487.8 329.1C487.8 330.1 488.7 330.8 489.7 330.5 489.7 330.5 490 330.4 490 330.4 490.6 330.2 491 329.4 491.1 328.7L490.3 318.5 497.9 309.8 499.3 333C499.3 334 500.2 334.7 501.1 334.4 501.1 334.4 501.4 334.3 501.4 334.3 502 334.1 502.4 333.3 502.5 332.6L501 306.1 516.6 288.3 524.2 310.7 512.3 334.7C511.9 335.5 512.2 336.4 513.1 336.8 513.9 337.2 514.8 336.9 515.2 336.1L525.7 315.3 529.4 326.2 525 335.1C524.6 335.9 524.9 336.8 525.7 337.2S527.4 337.3 527.8 336.5L530.8 330.4 533.5 338.3C533.8 339.2 534.6 339.6 535.5 339.3 536.4 339 536.8 338.2 536.5 337.3L533.9 329.4 540 332.4C540.4 332.6 540.8 332.8 541.4 332.6S542.2 332 542.4 331.6C542.8 330.8 542.5 329.9 541.7 329.5L532.7 325.1 529.1 314.2 550.1 324.6C550.6 324.8 551 325 551.6 324.8 551.9 324.7 552.4 324.2 552.6 323.8 553 323 552.7 322.1 551.9 321.7L527.9 309.8 520.3 287.4 543.5 292 558.4 314C558.9 314.5 559.7 314.9 560.3 314.7 560.3 314.7 560.6 314.6 560.6 314.6 561.4 314 561.4 313 561.2 312.4L548.3 293.1 559.5 295.4 565.1 304C565.6 304.5 566.5 304.9 567.1 304.7 567.1 304.7 567.4 304.6 567.4 304.6 568.2 304 568.2 303 568 302.4L564 296.6 572.3 298.2C572.6 298.1 573 298.3 573.3 298.2 573.9 298 574.4 297.5 574.5 296.8 574.5 295.7 574.2 294.8 573.2 294.8L564.9 293.3 570.6 289.3C571.4 288.7 571.4 287.7 571.2 287.1 570.6 286.3 569.6 286.3 569 286.5L560.4 292.1 549.2 289.8 568.5 276.9C569.3 276.2 569.3 275.2 569.1 274.6 567.8 274 566.7 273.7 565.9 274.3Z" fill="rgba(217, 228, 247, 0.53)"></path>
        <path d="M709 323.4L719.4 314.1 721.5 322.3C721.6 323.2 722.6 323.9 723.9 323.9 724.9 323.4 725.6 322.3 725.1 321.3L722.9 311 730.7 303.4 735.3 324.9C735.8 325.9 736.9 326.7 737.7 326.5 739.1 326.1 739.9 325.1 739.3 324.1L734.2 300.3 746.5 289 748.5 308.1 761 293.5 764.7 309.8 747 326.5C746.6 326.3 746.5 326.7 746.3 327.1 746.1 327.9 746.3 328.7 746.9 329.4 747.5 330 748.8 330 749.8 329.4L765.8 314.3 767.9 325 760.2 332.3C759.7 332.5 759.6 332.9 759.5 333.3 759.4 333.7 759.5 334.6 760.2 335.2 760.8 335.8 762.1 335.8 762.7 335.1L769 329.6 772.3 343.2C772.4 344.4 773.5 344.8 774.8 344.8 775.7 344.6 776.4 343.6 776 342.2L773.1 328.7 781.1 331.2C782.2 331.6 783.4 330.7 783.6 329.9 784 328.8 783.4 327.8 782.3 327.4L772 324.2 769.9 313.5 790.5 319.9C791.6 320.3 792.6 319.7 793 318.6 793.2 317.8 792.8 316.4 791.7 316.1L768.8 308.9 765 292.7 782.4 300.2 776.2 282.4 792.2 287.4 797.5 310.8C797.9 312.2 799.1 312.5 800 312.4 800.8 312.2 801.6 311.2 801.5 309.9L796.4 288.7 806.8 291.9 809.4 302.3C809.4 303.6 810.4 304.3 811.8 303.9 812.7 303.8 813.4 302.7 813 301.4L811.3 293.3 824.7 297.5C825.9 297.8 826.9 297.3 827.2 296.1S827 294 825.9 293.6L812.5 289.5 818.5 283.8C819.6 282.9 819.6 281.6 818.9 281 818 279.9 816.8 279.9 816 280.9L807.9 288.1 797.6 284.8 813.9 270.2C814.7 269.2 814.6 267.9 814 267.3 813.1 266.2 811.8 266.2 811.1 267.2L793.4 283.5 777.4 278.5 792.6 267.4 774.1 263.7 786.4 252.4 809.3 259.6C810.4 259.9 811.5 259 811.8 258.2 812.1 257.1 811.6 256.1 810.5 255.7L789.5 249.2 797.7 241.7 808 244.9C809.1 245.3 810.1 244.7 810.5 243.6 810.7 242.8 810.3 241.4 809.2 241.1L801.1 238.6 811.2 229.2C812.3 228.2 812.3 227 811.3 226.2 810.6 225.6 809.5 225.3 808.7 226.3L798.3 235.6 796.2 227.4C796.1 226.5 795.1 225.8 794.2 226 793.3 226.1 792.7 226.7 792.6 227.1 792.5 227.5 792.3 227.9 792.6 228.4L794.8 238.7 787 246.3 782.4 224.8C781.9 223.8 780.9 223.1 780 223.2 779.1 223.3 778.5 224 778.2 224.8 778.1 225.1 778.1 225.1 778.4 225.6L783.5 249.4 771.2 260.7 769.2 241.6 756.7 256.2 753 239.9 770.7 223.3C771.4 222.6 771.7 221.5 770.8 220.3 770.2 219.7 768.9 219.7 767.9 220.3L751.9 235.4 749.8 224.7 757.5 217.4C758.5 216.9 758.4 215.7 757.5 214.5 756.9 213.9 755.6 213.9 754.6 214.5L748.7 220.1 745.4 206.6C745.3 205.3 744.2 204.9 742.9 205 742.4 205.2 741.8 205.9 741.7 206.2 741.6 206.6 741.4 207 741.7 207.5L744.6 221 736.6 218.5C735.5 218.1 734.3 219 734.1 219.8L734.1 219.8C733.7 221 734.3 222 735.4 222.3L745.7 225.5 747.8 236.2 727.2 229.8C726.1 229.5 725.1 230 724.7 231.1S724.9 233.3 726 233.6L748.9 240.8 752.7 257 735.3 249.5 741.5 267.4 725.5 262.4 720.2 238.9C719.8 237.5 718.6 237.2 717.7 237.3 716.9 237.5 716.1 238.5 716.2 239.8L720.9 260.9 710.9 257.8 708.3 247.4C708.3 246.1 707.3 245.4 705.9 245.8 705 245.9 704.3 247 704.3 248.2L706.4 256.4 693 252.2C691.8 251.9 690.8 252.4 690.5 253.6S690.7 255.7 691.8 256.1L705.2 260.2 699.2 265.9C698.7 266.2 698.6 266.6 698.5 266.9 698.2 267.7 698.5 268.2 698.8 268.7 699.7 269.8 700.9 269.8 701.7 268.8L709.8 261.7 720.1 264.9 703.8 279.5C703.7 279.9 703.5 280.3 703.4 280.6 703.2 281.4 703.4 281.9 703.7 282.4 704.6 283.5 705.9 283.5 706.6 282.5L724.3 266.2 740.3 271.2 725.1 282.4 743.6 286 731.3 297.3 708.4 290.2C707.3 289.8 706.2 290.7 705.9 291.5 705.6 292.6 706.1 293.6 707.2 294L727.9 300.4 720 308 709.7 304.8C708.6 304.4 707.6 305 707.2 306.1S707.4 308.3 708.5 308.6L716.6 311.1 706.5 320.6C706 320.8 705.9 321.2 705.8 321.6 705.6 322 705.8 322.8 706.4 323.5 707.1 324.1 708.2 324.4 709 323.4ZM734.5 280.3L747 271.2 741.9 256.6 756.3 262.8 766.2 251.2 768.2 266.4 783.2 269.4 770.7 278.5 775.8 293.1 761.7 287.1 751.5 298.5 749.9 283.4 734.5 280.3Z" fill="rgba(217, 228, 247, 0.53)"></path>
        <path d="M1389.5 331.9L1378.3 348.6 1371.9 336.7C1371.3 335.4 1369.4 334.7 1367.5 335.2 1366.1 336.4 1365.4 338.3 1366 339.6L1374.1 355.4 1363.7 370.9 1347.4 338.7C1346.3 336.7 1344.4 335.9 1343 337.2 1341.1 337.7 1340.3 339.6 1341.5 341.6L1359.6 377.1 1350.5 391.4 1311.5 389.4 1304.5 376.2 1328.1 340.9C1328.1 340.2 1328.2 339.6 1328.2 338.9 1328.2 338.3 1327.7 337 1327.1 336.3 1325.2 334.9 1323.3 335.5 1322.5 337.4L1301 369.6 1292.9 353.1 1303.3 336.4C1304 336.4 1304 335.8 1304 335.1 1304.1 333.9 1303.5 332.5 1302.3 331.8 1301.1 331.1 1299.1 331.7 1297.8 332.9L1289.4 346.6 1278.9 326.1C1278.3 324.8 1276.4 324.1 1274.5 324.6 1273.1 325.8 1272.4 327.7 1273 329L1282.9 348.1 1269.4 347.4C1267.5 347.3 1266.2 349.2 1266.1 350.5 1266 352.4 1267.2 354.4 1269.1 354.5L1286.3 355.4 1294.5 371.8 1258.7 370C1256.8 369.9 1255.4 371.1 1255.3 373 1255.2 374.9 1256.4 376.3 1258.3 376.4L1298 378.4 1305.6 392.3 1284 425.1 1269.3 424.3 1250.7 388.1C1250.1 386.2 1247.6 385.4 1246.3 386.6 1244.3 387.2 1244.2 389.1 1244.8 391L1261.6 423.9 1243.1 423 1235 406.5C1234.4 405.2 1231.9 404.5 1230.6 405S1228.5 408.1 1229 410.1L1235.4 422.6 1213.1 421.4C1211.2 421.3 1209.8 423.2 1209.7 425.1 1209.6 426.4 1210.8 428.4 1212.7 428.5L1235.1 429.6 1227.4 442C1226.7 443.3 1226.6 445.2 1228.4 446.6 1229.7 447.3 1232.3 446.8 1233 445.5L1242.7 430 1261.3 431 1241.1 462C1240.4 463.9 1240.3 465.8 1242.1 467.2 1243.4 467.9 1245.9 467.4 1246.6 466.1L1269 431.4 1283.7 432.1 1301.7 467 1292.7 480 1253.1 478C1251.2 477.9 1249.8 479.1 1249.7 481 1249.6 482.9 1250.8 484.9 1252.7 485L1288.5 486.9 1278.7 502.4 1261.5 501.5C1259.6 501.4 1258.2 502.6 1258.1 504.5 1258 506.4 1259.2 507.8 1261.2 507.9L1274.6 508.6 1262.7 526.5C1262 527.8 1262.6 530.4 1263.8 531.1 1265.7 531.8 1267.6 531.9 1268.3 530L1280.8 511.5 1287.8 525.3C1289 526.6 1290.9 527.4 1292.2 526.8 1293.5 526.2 1294.2 525 1294.3 523.7 1294.3 523.7 1294.3 523 1293.7 522.4L1285 504.6 1294.8 489.1 1312.9 523.4C1313.4 525.3 1315.3 526.1 1317.3 524.9 1318 524.3 1318.7 523.7 1318.7 522.4 1318.8 521.7 1318.8 521.1 1318.8 520.5L1299 482.9 1307.3 470.5 1346.3 472.5 1353.8 487.7 1332.2 521.2C1330.9 523 1331.4 525 1333.3 525.7 1334.5 527 1336.4 526.5 1337.8 524.7L1357.3 494.3 1366.1 510.7 1356.4 525.6C1355.7 526.9 1356.2 528.8 1357.4 530.2 1359.3 530.9 1361.2 531 1361.9 529.1L1369.6 518 1378.9 535.7C1379.4 537.7 1381.4 537.8 1383.3 537.3 1384 536.7 1384.7 535.4 1384.8 534.1 1384.8 534.1 1384.8 533.5 1384.8 532.9L1374.9 513.8 1390.9 514.6C1392.2 514.6 1394.2 513.5 1394.3 511.5 1394.4 509.6 1392.5 508.3 1391.2 508.2L1371.4 507.2 1362.7 490.7 1401.6 492.7C1403.6 492.8 1404.9 491 1405 489S1403.9 485.8 1402 485.7L1359.2 483.5 1352.2 469.6 1373.8 436.8 1390.4 437.7 1409 474.5C1410.2 475.8 1412.1 476.6 1414 476 1414.7 475.4 1415.4 474.2 1415.5 472.9 1415.5 472.3 1415.5 471.6 1414.9 471L1398.1 438 1416.6 439 1425.4 455.5C1425.9 456.8 1427.8 457.5 1429.8 457 1431.1 455.8 1431.8 453.9 1431.3 452.6L1424.3 439.4 1444.7 440.5C1446 440.5 1448 438.7 1448.1 437.4 1448.2 435.5 1446.4 433.5 1445.1 433.4L1424.6 432.4 1432.9 420.6C1433 420 1433 419.3 1433 418.7 1433.1 417.4 1432.5 416.1 1431.9 415.4 1430 414.7 1428.1 415.2 1426.7 416.5L1417 432 1398.4 431 1418.6 400C1420 398.2 1419.4 396.2 1418.2 395.5 1416.4 394.1 1414.4 394.7 1413.1 395.9L1390.8 430.6 1374.1 429.8 1356.1 394.9 1364.4 381.8 1407.3 384.1C1409.2 384.1 1410.5 382.9 1410.6 381 1410.7 379.1 1409.5 377.8 1407.6 377.7L1368.6 375.6 1379 360.2 1398.8 361.2C1400.1 361.3 1402.1 359.4 1402.2 357.5 1402.3 355.6 1400.5 354.2 1399.2 354.2L1383.2 353.3 1395 335.4C1395.1 334.7 1395.1 334.7 1395.1 334.1 1395.2 332.8 1394.6 331.5 1394 330.8 1392.1 330.1 1390.2 330.6 1389.5 331.9ZM1366.5 429.4L1368.2 433.3 1366.1 436.4 1348.7 463.1 1346.6 466.1 1342.8 466 1311.5 464.3 1307.6 464.1 1305.9 460.8 1291.3 432.5 1289.6 429.2 1291.7 425.5 1309.1 399.5 1311.2 395.7 1315 395.9 1346.3 397.6 1350.2 397.8 1351.9 401.7 1366.5 429.4Z" fill="rgba(217, 228, 247, 0.53)"></path>
        <path d="M425.4 487.9L409.2 507.7 399.9 508.4 405.4 501.7C406.2 501.2 405.9 500.2 405.3 499.4 404.7 499.1 403.6 499.1 403.2 499.7L395.5 508.8 386.4 509.7 390.3 501.4 401.5 497.4C401.5 497.4 401.8 497.2 401.8 497.2 402.3 496.8 402.5 495.9 402.4 495.2 401.8 494.5 401.2 494.1 400.2 494.4L392.1 497.4 396.1 489.1 419.9 480.1C419.9 480.1 420.3 480.2 420.3 480.2 420.9 479.8 421 478.9 420.9 478.2 420.6 477.2 419.5 476.8 418.7 477.4L397.9 485.1 402.4 474.8 411.7 471.4C411.7 471.4 411.7 471.4 412 471.2 412.5 470.8 412.9 470.2 412.8 469.5 412.2 468.7 411.4 468.1 410.4 468.4L404.3 470.8 407.6 463.3C408.2 462.5 407.6 461.7 407 461.4 406.2 460.8 405.2 461.1 404.8 462.1L401.3 469.3 399.3 463.3C398.8 462.5 398 461.9 397.2 462.4 396.2 462.7 395.9 463.4 396.2 464.3L399.6 473.7 394.9 483.6 387.1 462.6C387 461.8 385.9 461.4 384.9 461.7 384.4 462.1 383.8 462.9 384.1 463.9L393.1 487.7 389.2 496 386.2 487.9C385.9 486.9 385 486.8 384 487.1 383.3 487.2 382.9 488.2 383 488.9L387.3 500 383.6 508.6 378.2 501 380.2 489.4C380.3 488.5 379.8 487.7 378.9 487.6 378.3 487.2 377.2 488 377.1 488.8L375.6 497.3 370.3 489.8 374.8 464.6C374.9 463.7 374.4 462.9 373.5 462.8 372.6 462.6 371.8 463.2 371.7 464.1L367.7 486.1 361.4 477.2 363.1 467.4C363.2 466.5 362.7 465.7 361.8 465.6 360.9 465.4 360.1 466 359.9 466.9L358.6 473.3 354 466.8C353.4 466 352.5 465.8 351.8 466.4 351 466.9 350.8 467.8 351.4 468.6L356 475.1 349.8 474.1C348.9 473.9 348.1 474.5 347.9 475.4S348.3 477 349.2 477.2L358.6 478.8 365.1 487.9 343.2 484.2C342.3 484.1 341.5 484.6 341.4 485.5 341.2 486.4 341.8 487.2 342.7 487.3L367.6 491.6 373 499.2 364.5 497.7C363.6 497.6 362.9 498.1 362.7 499 362.6 499.9 363.1 500.7 364 500.8L375.6 502.8 380.8 510.1 371.9 510.9 362.7 503.4C362 503 360.9 503.1 360.5 503.7 359.9 504.5 360 505.2 360.6 506L367.2 511.5 358.4 512.3 338.7 496.1C337.8 495.5 337.1 495.6 336.3 496.1 335.7 496.9 336 497.9 336.4 498.4L353.7 512.9 342.5 513.7 335.1 507.6C334.5 506.8 333.5 507.1 332.8 507.7 332.4 508.3 332.5 509.5 333.3 510.1L338.1 514.1 330.1 515C329.2 514.9 328.6 515.7 328.7 516.8 328.8 517.6 329.6 518.2 330.3 518L338.5 517.4 334.2 522.4C333.6 523.2 333.8 524.2 334.5 524.5 335 525.3 335.7 525.2 336.3 524.8 336.5 524.6 336.5 524.6 336.8 524.4L342.9 517 354 516.1 339.9 533.2C339.1 533.8 339.4 534.7 339.9 535.5 340.6 535.9 341.3 535.8 341.8 535.4 342.1 535.2 342.1 535.2 342.1 535.2L358.7 515.6 367.6 514.8 362.1 521.4C361.5 522.2 361.6 522.9 362.2 523.7 362.8 524.1 363.7 524.2 364.2 523.8 364.5 523.7 364.5 523.7 364.7 523.5L372.3 514.2 381.1 513.4 377.5 521.5 366.4 525.8C365.4 526.1 365 527.2 365.1 527.9 365.7 528.7 366.5 529.3 367.3 528.7L375.4 525.7 371.9 534.1 347.6 543C346.9 543.1 346.5 544.2 346.6 544.9 347.1 545.7 348 546.3 348.9 546L369.8 538.3 365.1 548.3 356 551.6C355 551.9 354.6 553 355.2 553.7 355.3 554.5 356.1 555.1 357.1 554.8L363.2 552.4 359.9 559.8C359.5 560.5 359.8 561.4 360.7 562 361.1 562.1 361.8 562 362.3 561.6 362.3 561.6 362.6 561.4 362.9 561.3L366.2 553.8 368.6 559.9C368.7 560.6 369.8 561.1 370.5 561 370.7 560.8 370.7 560.8 370.7 560.8 371.5 560.2 371.7 559.3 371.3 558.8L368 549.7 372.5 539.5 380.4 560.6C381 561.4 381.6 561.7 382.6 561.4 382.6 561.4 382.8 561.2 382.8 561.2 383.4 560.9 383.7 560.2 383.4 559.3L374.6 535.3 378.3 527.2 381.3 535.3C381.9 536 382.7 536.6 383.5 536.1 383.6 536.3 383.9 536.2 383.9 536.2 384.4 535.8 384.6 534.9 384.5 534.2L380.2 523.1 384.1 514.8 389.3 522.2 387.3 533.8C387.1 534.6 387.9 535.7 388.8 535.8 389.5 535.7 390.3 535.2 390.6 534.5L391.9 525.8 397.2 533.4 393 558.4C392.8 559.3 393.4 560 394.3 560.2 395.2 560.3 395.9 559.8 396.1 558.9L399.8 537 406.3 546.2 404.7 555.6C404.5 556.4 405.1 557.2 406 557.4S407.7 557 407.8 556.1L408.9 549.8 413.5 556.4C414.1 557.2 415 557.3 415.7 556.7 416.5 556.2 416.7 555.3 416.1 554.5L411.5 548 418 548.9C418.4 548.9 418.9 549 419.2 548.8 419.4 548.7 419.8 548 419.8 547.6 420 546.7 419.4 545.9 418.5 545.7L408.9 544.3 402.4 535.2 424.6 538.7C425 538.8 425.4 538.9 425.7 538.7 426 538.5 426.3 537.9 426.4 537.4 426.5 536.6 426 535.8 425.1 535.6L399.8 531.5 394.5 524 403.1 525.7C403.6 525.7 404.1 525.4 404.4 525.2 404.6 525 404.9 524.8 405 524.4 405.1 523.5 404.4 522.4 403.7 522.6L391.9 520.3 386.7 513 395.8 512 404.8 519.8C405.5 520.1 406.4 520.3 406.9 519.9 407.1 519.7 407.1 519.7 407 519.4 407.7 518.9 407.7 517.7 406.9 517.1L400.3 511.6 409.4 510.7 429 527.3C429.7 527.7 430.4 527.6 430.9 527.2 431.1 527 431.1 527 431.1 527 431.7 526.2 431.9 525.3 431.1 524.7L413.8 510.3 425 509.4 432.4 515.5C433.2 516.1 433.9 516 434.5 515.6 434.5 515.6 434.7 515.5 434.7 515.5 435.3 514.6 435 513.7 434.7 513.2L429.4 509 437.6 508.4C437.8 508.2 438.1 508 438.3 507.8 438.6 507.6 438.9 507 439 506.6 438.7 505.6 438.2 504.8 437.2 505.1L429 505.8 433.3 500.8C433.9 499.9 433.6 499 433.3 498.5 432.5 497.9 431.5 498.2 430.7 498.7L424.6 506.2 413.6 507.3 427.8 490.2C428.4 489.4 428.4 488.2 427.7 487.9 426.9 487.3 426 487.1 425.4 487.9Z" fill="rgba(217, 228, 247, 0.53)"></path>
        <path d="M1016.9 530.2L1027.1 525.7 1026.7 532.5C1026.6 533.2 1027.2 534 1028.1 534.3 1029 534.1 1029.8 533.5 1029.7 532.6L1030.5 524.2 1038.4 520.4 1036.5 537.9C1036.7 538.8 1037.3 539.6 1038 539.7 1039.2 539.7 1040 539.1 1039.8 538.2L1041.8 518.9 1053.9 513.3 1050.7 528.3 1063.8 520.4 1062.7 533.6 1045 541.9C1044.8 541.8 1044.6 542 1044.4 542.3 1044 542.8 1043.9 543.5 1044.3 544.1 1044.6 544.8 1045.6 545.1 1046.5 544.9L1062.4 537.4 1061.4 546 1053.7 549.6C1053.3 549.7 1053.1 550 1052.9 550.2 1052.7 550.5 1052.6 551.2 1052.9 551.8 1053.3 552.5 1054.2 552.8 1054.9 552.4L1061.1 549.8 1060.2 560.9C1059.9 561.9 1060.7 562.4 1061.7 562.7 1062.4 562.8 1063.2 562.3 1063.2 561.1L1064.3 550.1 1069.8 554C1070.6 554.6 1071.7 554.1 1072.1 553.6 1072.6 552.8 1072.5 551.9 1071.7 551.4L1064.6 546.4 1065.7 537.7 1079.8 547.7C1080.6 548.3 1081.4 548.1 1082 547.3 1082.4 546.8 1082.4 545.7 1081.6 545.1L1066 534 1067.1 520.7 1078.5 530.7 1078.2 515.6 1089.2 523.4 1087.4 542.5C1087.3 543.7 1088.1 544.2 1088.8 544.3 1089.5 544.4 1090.4 543.8 1090.7 542.9L1092 525.4 1099.1 530.4 1098.5 539C1098.2 540 1098.8 540.8 1099.9 540.8 1100.7 540.9 1101.5 540.3 1101.5 539.2L1102.2 532.6 1111.4 539.1C1112.1 539.6 1113 539.5 1113.6 538.7S1114 537 1113.2 536.5L1104.1 530 1110 527.2C1111.1 526.7 1111.4 525.8 1111 525.1 1110.6 524.1 1109.7 523.8 1108.8 524.4L1100.9 527.8 1093.9 522.8 1109.9 515.7C1110.7 515.1 1111 514.1 1110.7 513.5 1110.2 512.4 1109.3 512.1 1108.5 512.7L1091 520.8 1080 513 1094.4 508.3 1081.2 500.9 1093.3 495.3 1109 506.4C1109.8 507 1110.8 506.6 1111.2 506.1 1111.8 505.3 1111.6 504.4 1110.8 503.8L1096.5 493.7 1104.6 490 1111.6 495C1112.4 495.5 1113.3 495.4 1113.8 494.6 1114.2 494.1 1114.2 492.9 1113.5 492.4L1108 488.5 1118 483.8C1119 483.4 1119.3 482.4 1118.7 481.6 1118.4 481 1117.6 480.4 1116.8 481L1106.5 485.5 1107 478.8C1107.1 478.1 1106.5 477.2 1105.8 477.1 1105.1 477 1104.5 477.4 1104.3 477.6 1104.1 477.9 1103.9 478.2 1104 478.6L1103.1 487 1095.3 490.9 1097.1 473.3C1097 472.5 1096.4 471.6 1095.7 471.5 1095 471.4 1094.3 471.8 1094 472.3 1093.8 472.5 1093.8 472.5 1093.8 473L1091.9 492.4 1079.7 497.9 1082.9 482.9 1069.8 490.9 1071 477.6 1088.6 469.3C1089.3 469 1089.8 468.2 1089.4 467.1 1089.1 466.5 1088.1 466.2 1087.2 466.3L1071.3 473.9 1072.3 465.2 1080 461.6C1080.9 461.4 1081.1 460.5 1080.7 459.4 1080.4 458.8 1079.4 458.5 1078.5 458.6L1072.6 461.5 1073.4 450.3C1073.7 449.3 1072.9 448.8 1072 448.5 1071.5 448.6 1070.9 448.9 1070.7 449.2 1070.5 449.4 1070.3 449.7 1070.4 450.1L1069.3 461.1 1063.8 457.2C1063 456.7 1062 457.1 1061.6 457.6L1061.6 457.6C1061 458.4 1061.2 459.3 1062 459.8L1069 464.8 1068 473.5 1053.9 463.5C1053.1 463 1052.2 463.1 1051.7 463.9S1051.3 465.6 1052 466.1L1067.7 477.2 1066.5 490.5 1055.2 480.5 1055.5 495.6 1044.5 487.9 1046.3 468.7C1046.3 467.6 1045.5 467 1044.8 466.9 1044.1 466.8 1043.3 467.4 1043 468.4L1041.4 485.6 1034.6 480.8 1035.2 472.2C1035.5 471.3 1034.9 470.5 1033.7 470.4 1033 470.3 1032.2 470.9 1031.9 471.9L1031.5 478.6 1022.3 472.1C1021.5 471.6 1020.6 471.7 1020.1 472.5S1019.7 474.2 1020.5 474.8L1029.6 481.2 1023.7 484.1C1023.2 484.2 1023 484.4 1022.8 484.7 1022.5 485.2 1022.6 485.6 1022.6 486.1 1023 487.2 1024 487.5 1024.8 486.9L1032.7 483.4 1039.8 488.4 1023.8 495.5C1023.6 495.8 1023.4 496.1 1023.2 496.3 1022.9 496.8 1022.9 497.3 1023 497.7 1023.4 498.8 1024.4 499.1 1025.2 498.5L1042.7 490.5 1053.6 498.2 1039.3 503 1052.5 510.4 1040.4 515.9 1024.7 504.8C1023.9 504.2 1022.8 504.7 1022.5 505.2 1021.9 506 1022 506.9 1022.8 507.4L1036.9 517.4 1029.1 521.3 1022.1 516.3C1021.3 515.7 1020.4 515.9 1019.8 516.6S1019.4 518.3 1020.2 518.9L1025.7 522.8 1015.7 527.5C1015.3 527.5 1015.1 527.8 1014.9 528.1 1014.7 528.3 1014.6 529 1014.9 529.6 1015.3 530.3 1016.1 530.8 1016.9 530.2ZM1047 503.7L1058.7 499.9 1058.5 487.5 1067.9 495.8 1078.3 489.4 1076 501.5 1086.7 507.5 1074.9 511.3 1075.2 523.7 1066 515.6 1055.4 521.8 1057.9 509.9 1047 503.7Z" fill="rgba(217, 228, 247, 0.53)"></path>
    </g>
    <defs>
        <mask id="SvgjsMask1018">
            <rect width="1440" height="560" fill="#ffffff"></rect>
        </mask>
        <filter id="SvgjsFilter1019">
            <feGaussianBlur stdDeviation="1"></feGaussianBlur>
        </filter>
    </defs>
</svg>